<svg xmlns="http://www.w3.org/2000/svg" xmlns:xlink="http://www.w3.org/1999/xlink" style="margin:auto;background:#012c32;display:block;z-index:1;position:relative" width="2560" height="1199" preserveAspectRatio="xMidYMid" viewBox="0 0 2560 1199">
<g transform="translate(1280,599.5) scale(1,1) translate(-1280,-599.5)"><path d="M-100 431.38C-52.46 425.6 -52.33 414.76 -10.97 414.76S38.52 433.56 78.06 433.56S127.74 425.96 167.1 425.96S213.83 412.15 256.13 412.15S301.51 425.56 345.16 425.56S392.61 423.54 434.19 423.54S480.43 397.43 523.23 397.43S570.16 426.81 612.26 426.81S662.15 399.13 701.29 399.13S749.73 403.19 790.32 403.19S839.95 399.51 879.35 399.51S929.3 418.92 968.39 418.92S1016.34 410.24 1057.42 410.24S1106.23 429.22 1146.45 429.22S1191.5 448.21 1235.48 448.21S1280.64 440.08 1324.52 440.08S1371.6 445.66 1413.55 445.66S1463.5 437.31 1502.58 437.31S1547.74 440.3 1591.61 440.3S1636.53 396.43 1680.65 396.43S1727.1 397.63 1769.68 397.63S1818.98 418.74 1858.71 418.74S1908.37 397.36 1947.74 397.36S1993.83 422.33 2036.77 422.33S2083.35 430.98 2125.81 430.98S2175.06 399.55 2214.84 399.55S2262.47 444.29 2303.87 444.29S2350.21 419.82 2392.9 419.82S2439.88 442.82 2481.94 442.82S2529.16 418.91 2570.97 418.91S2620.42 402.7 2660 402.7S2709.27 399.37 2749.03 399.37L2660 1199 L-100 1199 Z" fill="#0f3135" stroke-width="0">
  <animate attributeName="d" dur="25s" repeatCount="indefinite" values="M-100 431.38C-52.46 425.6 -52.33 414.76 -10.97 414.76S38.52 433.56 78.06 433.56S127.74 425.96 167.1 425.96S213.83 412.15 256.13 412.15S301.51 425.56 345.16 425.56S392.61 423.54 434.19 423.54S480.43 397.43 523.23 397.43S570.16 426.81 612.26 426.81S662.15 399.13 701.29 399.13S749.73 403.19 790.32 403.19S839.95 399.51 879.35 399.51S929.3 418.92 968.39 418.92S1016.34 410.24 1057.42 410.24S1106.23 429.22 1146.45 429.22S1191.5 448.21 1235.48 448.21S1280.64 440.08 1324.52 440.08S1371.6 445.66 1413.55 445.66S1463.5 437.31 1502.58 437.31S1547.74 440.3 1591.61 440.3S1636.53 396.43 1680.65 396.43S1727.1 397.63 1769.68 397.63S1818.98 418.74 1858.71 418.74S1908.37 397.36 1947.74 397.36S1993.83 422.33 2036.77 422.33S2083.35 430.98 2125.81 430.98S2175.06 399.55 2214.84 399.55S2262.47 444.29 2303.87 444.29S2350.21 419.82 2392.9 419.82S2439.88 442.82 2481.94 442.82S2529.16 418.91 2570.97 418.91S2620.42 402.7 2660 402.7S2709.27 399.37 2749.03 399.37L2660 1199 L-100 1199 Z;M-100 429.37C-51.27 438.27 -50.65 416.22 -10.97 416.22S38.9 425.69 78.06 425.69S125.12 410.41 167.1 410.41S214.1 425.81 256.13 425.81S301.36 443.34 345.16 443.34S389.7 404.28 434.19 404.28S479.18 426.16 523.23 426.16S571.72 427.51 612.26 427.51S662.21 434.54 701.29 434.54S748.55 422.99 790.32 422.99S839.58 429.83 879.35 429.83S925.41 436.87 968.39 436.87S1018.09 426.97 1057.42 426.97S1105.03 426.42 1146.45 426.42S1192.48 444.3 1235.48 444.3S1284.93 401.53 1324.52 401.53S1373.89 395.7 1413.55 395.7S1462.59 401.8 1502.58 401.8S1550.05 438.09 1591.61 438.09S1640.92 414.11 1680.65 414.11S1728.09 426.55 1769.68 426.55S1814.35 404.49 1858.71 404.49S1905.23 415.99 1947.74 415.99S1997.42 425.08 2036.77 425.08S2081.93 409.51 2125.81 409.51S2173.22 421.8 2214.84 421.8S2259.52 401.72 2303.87 401.72S2349.37 415.6 2392.9 415.6S2441.38 405.61 2481.94 405.61S2530.55 405.16 2570.97 405.16S2615.91 430.49 2660 430.49S2706.47 417.57 2749.03 417.57L2660 1199 L-100 1199 Z;M-100 431.38C-52.46 425.6 -52.33 414.76 -10.97 414.76S38.52 433.56 78.06 433.56S127.74 425.96 167.1 425.96S213.83 412.15 256.13 412.15S301.51 425.56 345.16 425.56S392.61 423.54 434.19 423.54S480.43 397.43 523.23 397.43S570.16 426.81 612.26 426.81S662.15 399.13 701.29 399.13S749.73 403.19 790.32 403.19S839.95 399.51 879.35 399.51S929.3 418.92 968.39 418.92S1016.34 410.24 1057.42 410.24S1106.23 429.22 1146.45 429.22S1191.5 448.21 1235.48 448.21S1280.64 440.08 1324.52 440.08S1371.6 445.66 1413.55 445.66S1463.5 437.31 1502.58 437.31S1547.74 440.3 1591.61 440.3S1636.53 396.43 1680.65 396.43S1727.1 397.63 1769.68 397.63S1818.98 418.74 1858.71 418.74S1908.37 397.36 1947.74 397.36S1993.83 422.33 2036.77 422.33S2083.35 430.98 2125.81 430.98S2175.06 399.55 2214.84 399.55S2262.47 444.29 2303.87 444.29S2350.21 419.82 2392.9 419.82S2439.88 442.82 2481.94 442.82S2529.16 418.91 2570.97 418.91S2620.42 402.7 2660 402.7S2709.27 399.37 2749.03 399.37L2660 1199 L-100 1199 Z"></animate>
  <animateTransform attributeName="transform" type="translate" dur="25s" begin="0s" repeatCount="indefinite" values="0;10;0" calcMode="spline" keySplines="0.3 0 0.7 1;0.3 0 0.7 1"></animateTransform>
</path><path d="M-100 494.67C-52.53 471.38 -49.31 496.14 -8.61 496.14S41.92 492.2 82.78 492.2S130.93 494.48 174.17 494.48S224.93 486.42 265.56 486.42S312.72 472.72 356.95 472.72S407.59 457.91 448.34 457.91S496.88 480.21 539.74 480.21S590.48 500.01 631.13 500.01S680.2 491.38 722.52 491.38S773.19 478.35 813.91 478.35S864.11 482.31 905.3 482.31S953.12 480.85 996.69 480.85S1045.98 498.47 1088.08 498.47S1136.89 447.61 1179.47 447.61S1226.35 457.97 1270.86 457.97S1321.81 492.49 1362.25 492.49S1411.13 508.54 1453.64 508.54S1501.02 475.79 1545.03 475.79S1596.19 493.36 1636.42 493.36S1686.17 477.83 1727.81 477.83S1774.62 460.02 1819.21 460.02S1866.53 492.06 1910.6 492.06S1961.53 492.44 2001.99 492.44S2051.71 475.59 2093.38 475.59S2140.74 463.98 2184.77 463.98S2233.31 469.21 2276.16 469.21S2322.32 474.28 2367.55 474.28S2417.71 454.41 2458.94 454.41S2508.52 447.57 2550.33 447.57S2599.03 465.82 2641.72 465.82S2692.64 472.86 2733.11 472.86L2660 1199 L-100 1199 Z" fill="#153639" stroke-width="0">
  <animate attributeName="d" dur="22.5s" repeatCount="indefinite" values="M-100 494.67C-52.53 471.38 -49.31 496.14 -8.61 496.14S41.92 492.2 82.78 492.2S130.93 494.48 174.17 494.48S224.93 486.42 265.56 486.42S312.72 472.72 356.95 472.72S407.59 457.91 448.34 457.91S496.88 480.21 539.74 480.21S590.48 500.01 631.13 500.01S680.2 491.38 722.52 491.38S773.19 478.35 813.91 478.35S864.11 482.31 905.3 482.31S953.12 480.85 996.69 480.85S1045.98 498.47 1088.08 498.47S1136.89 447.61 1179.47 447.61S1226.35 457.97 1270.86 457.97S1321.81 492.49 1362.25 492.49S1411.13 508.54 1453.64 508.54S1501.02 475.79 1545.03 475.79S1596.19 493.36 1636.42 493.36S1686.17 477.83 1727.81 477.83S1774.62 460.02 1819.21 460.02S1866.53 492.06 1910.6 492.06S1961.53 492.44 2001.99 492.44S2051.71 475.59 2093.38 475.59S2140.74 463.98 2184.77 463.98S2233.31 469.21 2276.16 469.21S2322.32 474.28 2367.55 474.28S2417.71 454.41 2458.94 454.41S2508.52 447.57 2550.33 447.57S2599.03 465.82 2641.72 465.82S2692.64 472.86 2733.11 472.86L2660 1199 L-100 1199 Z;M-100 496.11C-51.76 446.11 -52.37 476.39 -8.61 476.39S37.46 477 82.78 477S133.28 459.27 174.17 459.27S222.53 470.72 265.56 470.72S314.5 498.41 356.95 498.41S406.84 471.65 448.34 471.65S495.45 465.43 539.74 465.43S588.26 463.03 631.13 463.03S679.63 466.74 722.52 466.74S771.17 458.95 813.91 458.95S864.57 499.6 905.3 499.6S951.41 470.33 996.69 470.33S1045.19 484.97 1088.08 484.97S1136.26 478.76 1179.47 478.76S1228.33 507.33 1270.86 507.33S1321.31 488.93 1362.25 488.93S1412.82 473.39 1453.64 473.39S1499.6 471.21 1545.03 471.21S1591.59 484.44 1636.42 484.44S1684.49 460.8 1727.81 460.8S1778.4 461.28 1819.21 461.28S1868.78 486.34 1910.6 486.34S1958.39 477.48 2001.99 477.48S2051.77 466.09 2093.38 466.09S2141.08 470.17 2184.77 470.17S2235.06 481.49 2276.16 481.49S2322.75 454.94 2367.55 454.94S2417.7 469.74 2458.94 469.74S2507.43 473.21 2550.33 473.21S2599.89 479.85 2641.72 479.85S2689.91 470.02 2733.11 470.02L2660 1199 L-100 1199 Z;M-100 494.67C-52.53 471.38 -49.31 496.14 -8.61 496.14S41.92 492.2 82.78 492.2S130.93 494.48 174.17 494.48S224.93 486.42 265.56 486.42S312.72 472.72 356.95 472.72S407.59 457.91 448.34 457.91S496.88 480.21 539.74 480.21S590.48 500.01 631.13 500.01S680.2 491.38 722.52 491.38S773.19 478.35 813.91 478.35S864.11 482.31 905.3 482.31S953.12 480.85 996.69 480.85S1045.98 498.47 1088.08 498.47S1136.89 447.61 1179.47 447.61S1226.35 457.97 1270.86 457.97S1321.81 492.49 1362.25 492.49S1411.13 508.54 1453.64 508.54S1501.02 475.79 1545.03 475.79S1596.19 493.36 1636.42 493.36S1686.17 477.83 1727.81 477.83S1774.62 460.02 1819.21 460.02S1866.53 492.06 1910.6 492.06S1961.53 492.44 2001.99 492.44S2051.71 475.59 2093.38 475.59S2140.74 463.98 2184.77 463.98S2233.31 469.21 2276.16 469.21S2322.32 474.28 2367.55 474.28S2417.71 454.41 2458.94 454.41S2508.52 447.57 2550.33 447.57S2599.03 465.82 2641.72 465.82S2692.64 472.86 2733.11 472.86L2660 1199 L-100 1199 Z"></animate>
  <animateTransform attributeName="transform" type="translate" dur="22.5s" begin="-2.25s" repeatCount="indefinite" values="0;10;0" calcMode="spline" keySplines="0.3 0 0.7 1;0.3 0 0.7 1"></animateTransform>
</path><path d="M-100 543.73C-49.98 537.58 -49.28 525.32 -6.12 525.32S44.23 533.1 87.76 533.1S135.21 556.96 181.63 556.96S231.77 505.29 275.51 505.29S324.32 514.74 369.39 514.74S418.09 509.18 463.27 509.18S510.41 552.35 557.14 552.35S608.89 569.23 651.02 569.23S700.9 552.44 744.9 552.44S793.32 523.16 838.78 523.16S886.71 561.44 932.65 561.44S984.36 522.46 1026.53 522.46S1075.27 534.68 1120.41 534.68S1168.09 538.47 1214.29 538.47S1265.76 557.87 1308.16 557.87S1355.86 519.57 1402.04 519.57S1452.19 506.69 1495.92 506.69S1547.74 525.81 1589.8 525.81S1636.76 528.93 1683.67 528.93S1735.08 541.42 1777.55 541.42S1829.21 566.55 1871.43 566.55S1918.76 556.21 1965.31 556.21S2012.72 553.71 2059.18 553.71S2106.19 509.06 2153.06 509.06S2202.2 544.16 2246.94 544.16S2296.95 532.02 2340.82 532.02S2391.91 564.41 2434.69 564.41S2483.9 510.84 2528.57 510.84S2579.09 547.56 2622.45 547.56S2671.55 518.72 2716.33 518.72L2660 1199 L-100 1199 Z" fill="#1b3b3e" stroke-width="0">
  <animate attributeName="d" dur="20s" repeatCount="indefinite" values="M-100 543.73C-49.98 537.58 -49.28 525.32 -6.12 525.32S44.23 533.1 87.76 533.1S135.21 556.96 181.63 556.96S231.77 505.29 275.51 505.29S324.32 514.74 369.39 514.74S418.09 509.18 463.27 509.18S510.41 552.35 557.14 552.35S608.89 569.23 651.02 569.23S700.9 552.44 744.9 552.44S793.32 523.16 838.78 523.16S886.71 561.44 932.65 561.44S984.36 522.46 1026.53 522.46S1075.27 534.68 1120.41 534.68S1168.09 538.47 1214.29 538.47S1265.76 557.87 1308.16 557.87S1355.86 519.57 1402.04 519.57S1452.19 506.69 1495.92 506.69S1547.74 525.81 1589.8 525.81S1636.76 528.93 1683.67 528.93S1735.08 541.42 1777.55 541.42S1829.21 566.55 1871.43 566.55S1918.76 556.21 1965.31 556.21S2012.72 553.71 2059.18 553.71S2106.19 509.06 2153.06 509.06S2202.2 544.16 2246.94 544.16S2296.95 532.02 2340.82 532.02S2391.91 564.41 2434.69 564.41S2483.9 510.84 2528.57 510.84S2579.09 547.56 2622.45 547.56S2671.55 518.72 2716.33 518.72L2660 1199 L-100 1199 Z;M-100 511.62C-51.99 537.77 -48.4 539.97 -6.12 539.97S41.78 564.85 87.76 564.85S139.11 539.88 181.63 539.88S228.81 528.95 275.51 528.95S324.14 537.97 369.39 537.97S416.42 501.77 463.27 501.77S515.5 559.07 557.14 559.07S606.4 526.59 651.02 526.59S699.88 519.7 744.9 519.7S796.7 538.96 838.78 538.96S886.41 529.39 932.65 529.39S979.83 531.85 1026.53 531.85S1078.37 566.21 1120.41 566.21S1170.17 536.58 1214.29 536.58S1262.37 517.19 1308.16 517.19S1359.15 540.01 1402.04 540.01S1451.39 540.06 1495.92 540.06S1545.46 559.63 1589.8 559.63S1638.39 526.51 1683.67 526.51S1731.29 516.44 1777.55 516.44S1825.94 500.23 1871.43 500.23S1920.79 514.95 1965.31 514.95S2012.25 551.43 2059.18 551.43S2110.71 550.13 2153.06 550.13S2203.07 550.92 2246.94 550.92S2299.13 519.18 2340.82 519.18S2392.43 547.81 2434.69 547.81S2484.56 508.55 2528.57 508.55S2577.61 540.9 2622.45 540.9S2673.57 544.73 2716.33 544.73L2660 1199 L-100 1199 Z;M-100 543.73C-49.98 537.58 -49.28 525.32 -6.12 525.32S44.23 533.1 87.76 533.1S135.21 556.96 181.63 556.96S231.77 505.29 275.51 505.29S324.32 514.74 369.39 514.74S418.09 509.18 463.27 509.18S510.41 552.35 557.14 552.35S608.89 569.23 651.02 569.23S700.9 552.44 744.9 552.44S793.32 523.16 838.78 523.16S886.71 561.44 932.65 561.44S984.36 522.46 1026.53 522.46S1075.27 534.68 1120.41 534.68S1168.09 538.47 1214.29 538.47S1265.76 557.87 1308.16 557.87S1355.86 519.57 1402.04 519.57S1452.19 506.69 1495.92 506.69S1547.74 525.81 1589.8 525.81S1636.76 528.93 1683.67 528.93S1735.08 541.42 1777.55 541.42S1829.21 566.55 1871.43 566.55S1918.76 556.21 1965.31 556.21S2012.72 553.71 2059.18 553.71S2106.19 509.06 2153.06 509.06S2202.2 544.16 2246.94 544.16S2296.95 532.02 2340.82 532.02S2391.91 564.41 2434.69 564.41S2483.9 510.84 2528.57 510.84S2579.09 547.56 2622.45 547.56S2671.55 518.72 2716.33 518.72L2660 1199 L-100 1199 Z"></animate>
  <animateTransform attributeName="transform" type="translate" dur="20s" begin="-4s" repeatCount="indefinite" values="0;10;0" calcMode="spline" keySplines="0.3 0 0.7 1;0.3 0 0.7 1"></animateTransform>
</path><path d="M-100 596.8C-49.07 598.51 -46.36 612.48 -3.5 612.48S45.62 559.71 93.01 559.71S143.26 558.04 189.51 558.04S240.72 584.89 286.01 584.89S335.73 600.43 382.52 600.43S431.12 594.41 479.02 594.41S529.1 605.28 575.52 605.28S625.28 548.25 672.03 548.25S722.14 578.03 768.53 578.03S817.36 546.26 865.03 546.26S917.68 590.25 961.54 590.25S1011.11 625.4 1058.04 625.4S1109.82 590.72 1154.55 590.72S1204.21 574.59 1251.05 574.59S1303.54 580.98 1347.55 580.98S1397.71 620.37 1444.06 620.37S1496.38 590.92 1540.56 590.92S1590.23 551.13 1637.06 551.13S1685.52 610.55 1733.57 610.55S1786.19 568.92 1830.07 568.92S1880.7 543.05 1926.57 543.05S1976.5 545.26 2023.08 545.26S2072.77 621.51 2119.58 621.51S2169.22 599.76 2216.08 599.76S2266.83 571.72 2312.59 571.72S2361.15 561.8 2409.09 561.8S2459.3 616.23 2505.59 616.23S2559.11 558.2 2602.1 558.2S2650.51 577.24 2698.6 577.24L2660 1199 L-100 1199 Z" fill="#203f42" stroke-width="0">
  <animate attributeName="d" dur="17.5s" repeatCount="indefinite" values="M-100 596.8C-49.07 598.51 -46.36 612.48 -3.5 612.48S45.62 559.71 93.01 559.71S143.26 558.04 189.51 558.04S240.72 584.89 286.01 584.89S335.73 600.43 382.52 600.43S431.12 594.41 479.02 594.41S529.1 605.28 575.52 605.28S625.28 548.25 672.03 548.25S722.14 578.03 768.53 578.03S817.36 546.26 865.03 546.26S917.68 590.25 961.54 590.25S1011.11 625.4 1058.04 625.4S1109.82 590.72 1154.55 590.72S1204.21 574.59 1251.05 574.59S1303.54 580.98 1347.55 580.98S1397.71 620.37 1444.06 620.37S1496.38 590.92 1540.56 590.92S1590.23 551.13 1637.06 551.13S1685.52 610.55 1733.57 610.55S1786.19 568.92 1830.07 568.92S1880.7 543.05 1926.57 543.05S1976.5 545.26 2023.08 545.26S2072.77 621.51 2119.58 621.51S2169.22 599.76 2216.08 599.76S2266.83 571.72 2312.59 571.72S2361.15 561.8 2409.09 561.8S2459.3 616.23 2505.59 616.23S2559.11 558.2 2602.1 558.2S2650.51 577.24 2698.6 577.24L2660 1199 L-100 1199 Z;M-100 605.76C-48.5 590.87 -46.58 567.9 -3.5 567.9S48.09 546.76 93.01 546.76S146.36 598.41 189.51 598.41S242.75 559.68 286.01 559.68S336.58 574.91 382.52 574.91S434.09 547.54 479.02 547.54S532.49 611.43 575.52 611.43S625.24 543.77 672.03 543.77S721.56 581.42 768.53 581.42S818.24 591.65 865.03 591.65S916.93 599.25 961.54 599.25S1012.89 579.67 1058.04 579.67S1110.9 547.9 1154.55 547.9S1205.58 577.69 1251.05 577.69S1303.93 589.42 1347.55 589.42S1400.73 573.42 1444.06 573.42S1496.37 609.63 1540.56 609.63S1590.73 565.34 1637.06 565.34S1685.86 552.29 1733.57 552.29S1783.1 567.34 1830.07 567.34S1880.63 574.94 1926.57 574.94S1978.45 574.71 2023.08 574.71S2071.45 612.97 2119.58 612.97S2170.52 588.72 2216.08 588.72S2267.29 612.71 2312.59 612.71S2365.27 591.26 2409.09 591.26S2459.34 588.51 2505.59 588.51S2555.48 575.66 2602.1 575.66S2655.01 623.92 2698.6 623.92L2660 1199 L-100 1199 Z;M-100 596.8C-49.07 598.51 -46.36 612.48 -3.5 612.48S45.62 559.71 93.01 559.71S143.26 558.04 189.51 558.04S240.72 584.89 286.01 584.89S335.73 600.43 382.52 600.43S431.12 594.41 479.02 594.41S529.1 605.28 575.52 605.28S625.28 548.25 672.03 548.25S722.14 578.03 768.53 578.03S817.36 546.26 865.03 546.26S917.68 590.25 961.54 590.25S1011.11 625.4 1058.04 625.4S1109.82 590.72 1154.55 590.72S1204.21 574.59 1251.05 574.59S1303.54 580.98 1347.55 580.98S1397.71 620.37 1444.06 620.37S1496.38 590.92 1540.56 590.92S1590.23 551.13 1637.06 551.13S1685.52 610.55 1733.57 610.55S1786.19 568.92 1830.07 568.92S1880.7 543.05 1926.57 543.05S1976.5 545.26 2023.08 545.26S2072.77 621.51 2119.58 621.51S2169.22 599.76 2216.08 599.76S2266.83 571.72 2312.59 571.72S2361.15 561.8 2409.09 561.8S2459.3 616.23 2505.59 616.23S2559.11 558.2 2602.1 558.2S2650.51 577.24 2698.6 577.24L2660 1199 L-100 1199 Z"></animate>
  <animateTransform attributeName="transform" type="translate" dur="17.5s" begin="-5.25s" repeatCount="indefinite" values="0;10;0" calcMode="spline" keySplines="0.3 0 0.7 1;0.3 0 0.7 1"></animateTransform>
</path><path d="M-100 600.25C-49.65 596.57 -46.47 642.73 -0.72 642.73S50.4 622.2 98.56 622.2S152.25 669.15 197.84 669.15S250.29 613.07 297.12 613.07S350.09 669.76 396.4 669.76S446.92 669.48 495.68 669.48S550.81 654.39 594.96 654.39S646.76 626.07 694.24 626.07S746.28 600.2 793.53 600.2S843.94 641.12 892.81 641.12S944.49 675.37 992.09 675.37S1045.94 632.76 1091.37 632.76S1141.26 642.21 1190.65 642.21S1241.57 632.93 1289.93 632.93S1339.83 665.7 1389.21 665.7S1441.72 661.5 1488.49 661.5S1538.47 676.08 1587.77 676.08S1640.43 686.3 1687.05 686.3S1741.65 649.97 1786.33 649.97S1836.34 634.24 1885.61 634.24S1937.33 636.84 1984.89 636.84S2039.62 629.7 2084.17 629.7S2138.69 662.15 2183.45 662.15S2236.42 588.45 2282.73 588.45S2333.7 590.23 2382.01 590.23S2431.99 617.49 2481.29 617.49S2533.57 669.2 2580.58 669.2S2630.8 600.34 2679.86 600.34L2660 1199 L-100 1199 Z" fill="#264447" stroke-width="0">
  <animate attributeName="d" dur="15s" repeatCount="indefinite" values="M-100 600.25C-49.65 596.57 -46.47 642.73 -0.72 642.73S50.4 622.2 98.56 622.2S152.25 669.15 197.84 669.15S250.29 613.07 297.12 613.07S350.09 669.76 396.4 669.76S446.92 669.48 495.68 669.48S550.81 654.39 594.96 654.39S646.76 626.07 694.24 626.07S746.28 600.2 793.53 600.2S843.94 641.12 892.81 641.12S944.49 675.37 992.09 675.37S1045.94 632.76 1091.37 632.76S1141.26 642.21 1190.65 642.21S1241.57 632.93 1289.93 632.93S1339.83 665.7 1389.21 665.7S1441.72 661.5 1488.49 661.5S1538.47 676.08 1587.77 676.08S1640.43 686.3 1687.05 686.3S1741.65 649.97 1786.33 649.97S1836.34 634.24 1885.61 634.24S1937.33 636.84 1984.89 636.84S2039.62 629.7 2084.17 629.7S2138.69 662.15 2183.45 662.15S2236.42 588.45 2282.73 588.45S2333.7 590.23 2382.01 590.23S2431.99 617.49 2481.29 617.49S2533.57 669.2 2580.58 669.2S2630.8 600.34 2679.86 600.34L2660 1199 L-100 1199 Z;M-100 668.35C-49.8 662.32 -45.59 637.66 -0.72 637.66S53.74 619.46 98.56 619.46S151.68 637.83 197.84 637.83S250.22 627.57 297.12 627.57S349.72 643.63 396.4 643.63S451.41 588.42 495.68 588.42S546.09 640.31 594.96 640.31S646.89 615.57 694.24 615.57S746.48 658.7 793.53 658.7S845.42 668.25 892.81 668.25S946.87 589.06 992.09 589.06S1046.87 643.94 1091.37 643.94S1145.32 635.82 1190.65 635.82S1241.62 605.5 1289.93 605.5S1343.85 672.5 1389.21 672.5S1442.34 608.99 1488.49 608.99S1539.96 669.95 1587.77 669.95S1641.49 637.98 1687.05 637.98S1737.65 633.06 1786.33 633.06S1836.43 601.65 1885.61 601.65S1940 659.82 1984.89 659.82S2034.64 593.13 2084.17 593.13S2138.98 655.21 2183.45 655.21S2238.37 641.87 2282.73 641.87S2336.87 676.71 2382.01 676.71S2432.96 632.49 2481.29 632.49S2532.18 642.24 2580.58 642.24S2632.72 631.33 2679.86 631.33L2660 1199 L-100 1199 Z;M-100 600.25C-49.65 596.57 -46.47 642.73 -0.72 642.73S50.4 622.2 98.56 622.2S152.25 669.15 197.84 669.15S250.29 613.07 297.12 613.07S350.09 669.76 396.4 669.76S446.92 669.48 495.68 669.48S550.81 654.39 594.96 654.39S646.76 626.07 694.24 626.07S746.28 600.2 793.53 600.2S843.94 641.12 892.81 641.12S944.49 675.37 992.09 675.37S1045.94 632.76 1091.37 632.76S1141.26 642.21 1190.65 642.21S1241.57 632.93 1289.93 632.93S1339.83 665.7 1389.21 665.7S1441.72 661.5 1488.49 661.5S1538.47 676.08 1587.77 676.08S1640.43 686.3 1687.05 686.3S1741.65 649.97 1786.33 649.97S1836.34 634.24 1885.61 634.24S1937.33 636.84 1984.89 636.84S2039.62 629.7 2084.17 629.7S2138.69 662.15 2183.45 662.15S2236.42 588.45 2282.73 588.45S2333.7 590.23 2382.01 590.23S2431.99 617.49 2481.29 617.49S2533.57 669.2 2580.58 669.2S2630.8 600.34 2679.86 600.34L2660 1199 L-100 1199 Z"></animate>
  <animateTransform attributeName="transform" type="translate" dur="15s" begin="-6s" repeatCount="indefinite" values="0;10;0" calcMode="spline" keySplines="0.3 0 0.7 1;0.3 0 0.7 1"></animateTransform>
</path><path d="M-100 640.29C-46.43 647.04 -43.94 716.8 2.22 716.8S54.72 658.45 104.44 658.45S157.52 741.3 206.67 741.3S261.71 674.29 308.89 674.29S364.13 722.13 411.11 722.13S463.53 656.9 513.33 656.9S565.82 718.09 615.56 718.09S670.96 653 717.78 653S770.54 677.68 820 677.68S874.61 637.07 922.22 637.07S976.8 708.34 1024.44 708.34S1076.63 737.21 1126.67 737.21S1182.92 731.31 1228.89 731.31S1284 685.9 1331.11 685.9S1386.07 704.61 1433.33 704.61S1487.46 663.23 1535.56 663.23S1589.29 719.24 1637.78 719.24S1690.57 667.43 1740 667.43S1794.57 736.14 1842.22 736.14S1895.13 688.43 1944.44 688.43S1998.79 678.68 2046.67 678.68S2102.85 656.56 2148.89 656.56S2204.29 735.93 2251.11 735.93S2304.05 704.39 2353.33 704.39S2408.37 721.14 2455.56 721.14S2508.66 662.18 2557.78 662.18S2613.4 636.86 2660 636.86S2711.93 721.54 2762.22 721.54L2660 1199 L-100 1199 Z" fill="#2b494b" stroke-width="0">
  <animate attributeName="d" dur="12.5s" repeatCount="indefinite" values="M-100 640.29C-46.43 647.04 -43.94 716.8 2.22 716.8S54.72 658.45 104.44 658.45S157.52 741.3 206.67 741.3S261.71 674.29 308.89 674.29S364.13 722.13 411.11 722.13S463.53 656.9 513.33 656.9S565.82 718.09 615.56 718.09S670.96 653 717.78 653S770.54 677.68 820 677.68S874.61 637.07 922.22 637.07S976.8 708.34 1024.44 708.34S1076.63 737.21 1126.67 737.21S1182.92 731.31 1228.89 731.31S1284 685.9 1331.11 685.9S1386.07 704.61 1433.33 704.61S1487.46 663.23 1535.56 663.23S1589.29 719.24 1637.78 719.24S1690.57 667.43 1740 667.43S1794.57 736.14 1842.22 736.14S1895.13 688.43 1944.44 688.43S1998.79 678.68 2046.67 678.68S2102.85 656.56 2148.89 656.56S2204.29 735.93 2251.11 735.93S2304.05 704.39 2353.33 704.39S2408.37 721.14 2455.56 721.14S2508.66 662.18 2557.78 662.18S2613.4 636.86 2660 636.86S2711.93 721.54 2762.22 721.54L2660 1199 L-100 1199 Z;M-100 683.7C-47.92 636.25 -47.52 647.31 2.22 647.31S58.4 664.5 104.44 664.5S157.89 739.77 206.67 739.77S261.19 653.76 308.89 653.76S360.15 734.13 411.11 734.13S464.75 666.27 513.33 666.27S568.81 723.05 615.56 723.05S671.26 683.84 717.78 683.84S771.62 723.61 820 723.61S873.85 644.74 922.22 644.74S974.68 720.44 1024.44 720.44S1076.75 681.4 1126.67 681.4S1181.14 739.13 1228.89 739.13S1284.51 719.16 1331.11 719.16S1387.65 700.27 1433.33 700.27S1489.69 638.37 1535.56 638.37S1588.97 735.88 1637.78 735.88S1691.9 643.41 1740 643.41S1792.79 734.72 1842.22 734.72S1895.62 636.44 1944.44 636.44S1996.02 736.4 2046.67 736.4S2103.03 678.12 2148.89 678.12S2200.14 678.5 2251.11 678.5S2305.83 639.1 2353.33 639.1S2408.31 670.82 2455.56 670.82S2509.84 638.79 2557.78 638.79S2611.65 693.3 2660 693.3S2713.42 707.48 2762.22 707.48L2660 1199 L-100 1199 Z;M-100 640.29C-46.43 647.04 -43.94 716.8 2.22 716.8S54.72 658.45 104.44 658.45S157.52 741.3 206.67 741.3S261.71 674.29 308.89 674.29S364.13 722.13 411.11 722.13S463.53 656.9 513.33 656.9S565.82 718.09 615.56 718.09S670.96 653 717.78 653S770.54 677.68 820 677.68S874.61 637.07 922.22 637.07S976.8 708.34 1024.44 708.34S1076.63 737.21 1126.67 737.21S1182.92 731.31 1228.89 731.31S1284 685.9 1331.11 685.9S1386.07 704.61 1433.33 704.61S1487.46 663.23 1535.56 663.23S1589.29 719.24 1637.78 719.24S1690.57 667.43 1740 667.43S1794.57 736.14 1842.22 736.14S1895.13 688.43 1944.44 688.43S1998.79 678.68 2046.67 678.68S2102.85 656.56 2148.89 656.56S2204.29 735.93 2251.11 735.93S2304.05 704.39 2353.33 704.39S2408.37 721.14 2455.56 721.14S2508.66 662.18 2557.78 662.18S2613.4 636.86 2660 636.86S2711.93 721.54 2762.22 721.54L2660 1199 L-100 1199 Z"></animate>
  <animateTransform attributeName="transform" type="translate" dur="12.5s" begin="-6.25s" repeatCount="indefinite" values="0;10;0" calcMode="spline" keySplines="0.3 0 0.7 1;0.3 0 0.7 1"></animateTransform>
</path><path d="M-100 755.5C-44.64 797.47 -43.55 785 5.34 785S59.68 751.78 110.69 751.78S166.09 804.66 216.03 804.66S268.94 693.72 321.37 693.72S376.37 734.58 426.72 734.58S484.02 699.73 532.06 699.73S586.93 787.43 637.4 787.43S694.65 736.12 742.75 736.12S799.76 786.74 848.09 786.74S904.66 700.65 953.44 700.65S1008.08 774.73 1058.78 774.73S1115.3 693.12 1164.12 693.12S1218.61 800.94 1269.47 800.94S1326.14 691.34 1374.81 691.34S1432.32 799.24 1480.15 799.24S1534.24 732.14 1585.5 732.14S1640.32 785.07 1690.84 785.07S1747.27 697.5 1796.18 697.5S1853.77 774.93 1901.53 774.93S1954.33 704.92 2006.87 704.92S2059.82 779.38 2112.21 779.38S2166.65 692.92 2217.56 692.92S2274.24 767.68 2322.9 767.68S2377.29 709.23 2428.24 709.23S2482.58 790.44 2533.59 790.44S2587.18 690.16 2638.93 690.16S2692.84 757.8 2744.27 757.8L2660 1199 L-100 1199 Z" fill="#314e50" stroke-width="0">
  <animate attributeName="d" dur="10s" repeatCount="indefinite" values="M-100 755.5C-44.64 797.47 -43.55 785 5.34 785S59.68 751.78 110.69 751.78S166.09 804.66 216.03 804.66S268.94 693.72 321.37 693.72S376.37 734.58 426.72 734.58S484.02 699.73 532.06 699.73S586.93 787.43 637.4 787.43S694.65 736.12 742.75 736.12S799.76 786.74 848.09 786.74S904.66 700.65 953.44 700.65S1008.08 774.73 1058.78 774.73S1115.3 693.12 1164.12 693.12S1218.61 800.94 1269.47 800.94S1326.14 691.34 1374.81 691.34S1432.32 799.24 1480.15 799.24S1534.24 732.14 1585.5 732.14S1640.32 785.07 1690.84 785.07S1747.27 697.5 1796.18 697.5S1853.77 774.93 1901.53 774.93S1954.33 704.92 2006.87 704.92S2059.82 779.38 2112.21 779.38S2166.65 692.92 2217.56 692.92S2274.24 767.68 2322.9 767.68S2377.29 709.23 2428.24 709.23S2482.58 790.44 2533.59 790.44S2587.18 690.16 2638.93 690.16S2692.84 757.8 2744.27 757.8L2660 1199 L-100 1199 Z;M-100 714.87C-45.13 719.64 -46.71 790.84 5.34 790.84S62.35 690.93 110.69 690.93S164.59 773.07 216.03 773.07S273.7 687.79 321.37 687.79S375.89 787.59 426.72 787.59S481.82 694.11 532.06 694.11S588.15 757.97 637.4 757.97S693.74 695.77 742.75 695.77S798.36 723.67 848.09 723.67S903.81 727.35 953.44 727.35S1006.61 791.7 1058.78 791.7S1115.39 691.46 1164.12 691.46S1218.69 756.61 1269.47 756.61S1324.62 728.19 1374.81 728.19S1429.54 799.03 1480.15 799.03S1536.15 687.32 1585.5 687.32S1639.73 793.28 1690.84 793.28S1745.13 718.37 1796.18 718.37S1851.82 795.9 1901.53 795.9S1958.4 713.48 2006.87 713.48S2064.07 754.25 2112.21 754.25S2168.1 689.57 2217.56 689.57S2273.05 782.5 2322.9 782.5S2376.9 712.72 2428.24 712.72S2483.53 761.92 2533.59 761.92S2588.4 735.38 2638.93 735.38S2693.98 792.47 2744.27 792.47L2660 1199 L-100 1199 Z;M-100 755.5C-44.64 797.47 -43.55 785 5.34 785S59.68 751.78 110.69 751.78S166.09 804.66 216.03 804.66S268.94 693.72 321.37 693.72S376.37 734.58 426.72 734.58S484.02 699.73 532.06 699.73S586.93 787.43 637.4 787.43S694.65 736.12 742.75 736.12S799.76 786.74 848.09 786.74S904.66 700.65 953.44 700.65S1008.08 774.73 1058.78 774.73S1115.3 693.12 1164.12 693.12S1218.61 800.94 1269.47 800.94S1326.14 691.34 1374.81 691.34S1432.32 799.24 1480.15 799.24S1534.24 732.14 1585.5 732.14S1640.32 785.07 1690.84 785.07S1747.27 697.5 1796.18 697.5S1853.77 774.93 1901.53 774.93S1954.33 704.92 2006.87 704.92S2059.82 779.38 2112.21 779.38S2166.65 692.92 2217.56 692.92S2274.24 767.68 2322.9 767.68S2377.29 709.23 2428.24 709.23S2482.58 790.44 2533.59 790.44S2587.18 690.16 2638.93 690.16S2692.84 757.8 2744.27 757.8L2660 1199 L-100 1199 Z"></animate>
  <animateTransform attributeName="transform" type="translate" dur="10s" begin="-6s" repeatCount="indefinite" values="0;10;0" calcMode="spline" keySplines="0.3 0 0.7 1;0.3 0 0.7 1"></animateTransform>
</path><path d="M-100 784.98C-45.62 749.29 -42.85 828.4 8.66 828.4S66.22 844.91 117.32 844.91S176.23 753.09 225.98 753.09S283.52 757.52 334.65 757.52S393.98 816.68 443.31 816.68S498.63 740.29 551.97 740.29S607.62 845.9 660.63 845.9S716.4 784.78 769.29 784.78S826.48 844.17 877.95 844.17S937.66 752.41 986.61 752.41S1042.26 815.09 1095.28 815.09S1153.62 783.32 1203.94 783.32S1259.54 818.35 1312.6 818.35S1366.96 769.58 1421.26 769.58S1479.94 861.63 1529.92 861.63S1586.84 772.78 1638.58 772.78S1698.2 823.17 1747.24 823.17S1803.17 734.59 1855.91 734.59S1912.85 810.54 1964.57 810.54S2023.97 758.49 2073.23 758.49S2130.69 833 2181.89 833S2240.71 748.58 2290.55 748.58S2348.63 782.78 2399.21 782.78S2457.24 767.4 2507.87 767.4S2567.39 833.58 2616.54 833.58S2673.08 782.33 2725.2 782.33L2660 1199 L-100 1199 Z" fill="#365355" stroke-width="0">
  <animate attributeName="d" dur="7.5s" repeatCount="indefinite" values="M-100 784.98C-45.62 749.29 -42.85 828.4 8.66 828.4S66.22 844.91 117.32 844.91S176.23 753.09 225.98 753.09S283.52 757.52 334.65 757.52S393.98 816.68 443.31 816.68S498.63 740.29 551.97 740.29S607.62 845.9 660.63 845.9S716.4 784.78 769.29 784.78S826.48 844.17 877.95 844.17S937.66 752.41 986.61 752.41S1042.26 815.09 1095.28 815.09S1153.62 783.32 1203.94 783.32S1259.54 818.35 1312.6 818.35S1366.96 769.58 1421.26 769.58S1479.94 861.63 1529.92 861.63S1586.84 772.78 1638.58 772.78S1698.2 823.17 1747.24 823.17S1803.17 734.59 1855.91 734.59S1912.85 810.54 1964.57 810.54S2023.97 758.49 2073.23 758.49S2130.69 833 2181.89 833S2240.71 748.58 2290.55 748.58S2348.63 782.78 2399.21 782.78S2457.24 767.4 2507.87 767.4S2567.39 833.58 2616.54 833.58S2673.08 782.33 2725.2 782.33L2660 1199 L-100 1199 Z;M-100 768.58C-42.55 766.31 -41.25 829.16 8.66 829.16S66.18 743.94 117.32 743.94S176.16 770.76 225.98 770.76S283.77 784.51 334.65 784.51S393.82 838.08 443.31 838.08S500.35 767.85 551.97 767.85S607.74 813.04 660.63 813.04S716.52 736.03 769.29 736.03S824.11 830.33 877.95 830.33S936.01 745.96 986.61 745.96S1044.74 828.38 1095.28 828.38S1153.09 766.07 1203.94 766.07S1261.91 858.62 1312.6 858.62S1367.88 840.14 1421.26 840.14S1480.69 764.98 1529.92 764.98S1584.87 742.67 1638.58 742.67S1694.17 837.16 1747.24 837.16S1801.74 822.05 1855.91 822.05S1912.26 815.02 1964.57 815.02S2022.44 823.93 2073.23 823.93S2132.4 836.86 2181.89 836.86S2240.54 865.39 2290.55 865.39S2347.79 846.28 2399.21 846.28S2454.34 778.81 2507.87 778.81S2563.74 826.23 2616.54 826.23S2672.16 833.01 2725.2 833.01L2660 1199 L-100 1199 Z;M-100 784.98C-45.62 749.29 -42.85 828.4 8.66 828.4S66.22 844.91 117.32 844.91S176.23 753.09 225.98 753.09S283.52 757.52 334.65 757.52S393.98 816.68 443.31 816.68S498.63 740.29 551.97 740.29S607.62 845.9 660.63 845.9S716.4 784.78 769.29 784.78S826.48 844.17 877.95 844.17S937.66 752.41 986.61 752.41S1042.26 815.09 1095.28 815.09S1153.62 783.32 1203.94 783.32S1259.54 818.35 1312.6 818.35S1366.96 769.58 1421.26 769.58S1479.94 861.63 1529.92 861.63S1586.84 772.78 1638.58 772.78S1698.2 823.17 1747.24 823.17S1803.17 734.59 1855.91 734.59S1912.85 810.54 1964.57 810.54S2023.97 758.49 2073.23 758.49S2130.69 833 2181.89 833S2240.71 748.58 2290.55 748.58S2348.63 782.78 2399.21 782.78S2457.24 767.4 2507.87 767.4S2567.39 833.58 2616.54 833.58S2673.08 782.33 2725.2 782.33L2660 1199 L-100 1199 Z"></animate>
  <animateTransform attributeName="transform" type="translate" dur="7.5s" begin="-5.25s" repeatCount="indefinite" values="0;10;0" calcMode="spline" keySplines="0.3 0 0.7 1;0.3 0 0.7 1"></animateTransform>
</path><path d="M-100 821.88C-43.64 823.01 -41.75 804.46 12.2 804.46S73.73 780.32 124.39 780.32S185.9 906.73 236.59 906.73S297.28 782.67 348.78 782.67S406.83 894.19 460.98 894.19S517.75 812.3 573.17 812.3S632.74 789.79 685.37 789.79S741.58 825.31 797.56 825.31S855.96 923.37 909.76 923.37S970.26 798.71 1021.95 798.71S1079.87 913.65 1134.15 913.65S1193.97 834.23 1246.34 834.23S1307.62 919.31 1358.54 919.31S1419.71 799.91 1470.73 799.91S1529.24 906.4 1582.93 906.4S1641.02 784.04 1695.12 784.04S1752.78 905.62 1807.32 905.62S1865.56 825.54 1919.51 825.54S1980.71 806.71 2031.71 806.71S2087.84 791.3 2143.9 791.3S2202.94 886.66 2256.1 886.66S2314.08 820.72 2368.29 820.72S2429.27 922.79 2480.49 922.79S2541.81 881.79 2592.68 881.79S2652.26 816.64 2704.88 816.64L2660 1199 L-100 1199 Z" fill="#3c5959" stroke-width="0">
  <animate attributeName="d" dur="5s" repeatCount="indefinite" values="M-100 821.88C-43.64 823.01 -41.75 804.46 12.2 804.46S73.73 780.32 124.39 780.32S185.9 906.73 236.59 906.73S297.28 782.67 348.78 782.67S406.83 894.19 460.98 894.19S517.75 812.3 573.17 812.3S632.74 789.79 685.37 789.79S741.58 825.31 797.56 825.31S855.96 923.37 909.76 923.37S970.26 798.71 1021.95 798.71S1079.87 913.65 1134.15 913.65S1193.97 834.23 1246.34 834.23S1307.62 919.31 1358.54 919.31S1419.71 799.91 1470.73 799.91S1529.24 906.4 1582.93 906.4S1641.02 784.04 1695.12 784.04S1752.78 905.62 1807.32 905.62S1865.56 825.54 1919.51 825.54S1980.71 806.71 2031.71 806.71S2087.84 791.3 2143.9 791.3S2202.94 886.66 2256.1 886.66S2314.08 820.72 2368.29 820.72S2429.27 922.79 2480.49 922.79S2541.81 881.79 2592.68 881.79S2652.26 816.64 2704.88 816.64L2660 1199 L-100 1199 Z;M-100 810.34C-41.98 785.85 -39.38 885.4 12.2 885.4S71.82 892.62 124.39 892.62S182.7 814.34 236.59 814.34S294.31 805.92 348.78 805.92S405.82 918.65 460.98 918.65S518.79 815.28 573.17 815.28S633.81 893.88 685.37 893.88S743.07 831.93 797.56 831.93S854.59 885.11 909.76 885.11S968.22 822.99 1021.95 822.99S1079.37 896.75 1134.15 896.75S1190.26 785.8 1246.34 785.8S1303.4 794.82 1358.54 794.82S1419.72 874.47 1470.73 874.47S1527.9 890.03 1582.93 890.03S1642.2 796.1 1695.12 796.1S1752.66 912.72 1807.32 912.72S1868.93 791.58 1919.51 791.58S1978.1 907.14 2031.71 907.14S2091.38 780.2 2143.9 780.2S2201.15 825.98 2256.1 825.98S2316.21 802.15 2368.29 802.15S2425.41 905.93 2480.49 905.93S2539.77 834.01 2592.68 834.01S2651.21 789.32 2704.88 789.32L2660 1199 L-100 1199 Z;M-100 821.88C-43.64 823.01 -41.75 804.46 12.2 804.46S73.73 780.32 124.39 780.32S185.9 906.73 236.59 906.73S297.28 782.67 348.78 782.67S406.83 894.19 460.98 894.19S517.75 812.3 573.17 812.3S632.74 789.79 685.37 789.79S741.58 825.31 797.56 825.31S855.96 923.37 909.76 923.37S970.26 798.71 1021.95 798.71S1079.87 913.65 1134.15 913.65S1193.97 834.23 1246.34 834.23S1307.62 919.31 1358.54 919.31S1419.71 799.91 1470.73 799.91S1529.24 906.4 1582.93 906.4S1641.02 784.04 1695.12 784.04S1752.78 905.62 1807.32 905.62S1865.56 825.54 1919.51 825.54S1980.71 806.71 2031.71 806.71S2087.84 791.3 2143.9 791.3S2202.94 886.66 2256.1 886.66S2314.08 820.72 2368.29 820.72S2429.27 922.79 2480.49 922.79S2541.81 881.79 2592.68 881.79S2652.26 816.64 2704.88 816.64L2660 1199 L-100 1199 Z"></animate>
  <animateTransform attributeName="transform" type="translate" dur="5s" begin="-4s" repeatCount="indefinite" values="0;10;0" calcMode="spline" keySplines="0.3 0 0.7 1;0.3 0 0.7 1"></animateTransform>
</path><path d="M-100 840.55C-39.89 857.5 -36.99 849.95 15.97 849.95S77.97 844.83 131.93 844.83S192.33 932.12 247.9 932.12S310.14 861.8 363.87 861.8S423.24 980.11 479.83 980.11S542.25 860.14 595.8 860.14S657.49 969.6 711.76 969.6S774.88 873.02 827.73 873.02S887.06 870.27 943.7 870.27S1005.89 846.13 1059.66 846.13S1118.94 972.05 1175.63 972.05S1237.79 849.54 1291.6 849.54S1352.22 931.88 1407.56 931.88S1466.15 975.27 1523.53 975.27S1586.11 962.9 1639.5 962.9S1699.43 862.35 1755.46 862.35S1815.27 944.07 1871.43 944.07S1934.09 868.08 1987.39 868.08S2050.07 956.09 2103.36 956.09S2166.79 851.65 2219.33 851.65S2277.37 955.78 2335.29 955.78S2395.04 869.73 2451.26 869.73S2514.15 966.56 2567.23 966.56S2629.81 876.59 2683.19 876.59L2660 1199 L-100 1199 Z" fill="#415e5e" stroke-width="0">
  <animate attributeName="d" dur="2.5s" repeatCount="indefinite" values="M-100 840.55C-39.89 857.5 -36.99 849.95 15.97 849.95S77.97 844.83 131.93 844.83S192.33 932.12 247.9 932.12S310.14 861.8 363.87 861.8S423.24 980.11 479.83 980.11S542.25 860.14 595.8 860.14S657.49 969.6 711.76 969.6S774.88 873.02 827.73 873.02S887.06 870.27 943.7 870.27S1005.89 846.13 1059.66 846.13S1118.94 972.05 1175.63 972.05S1237.79 849.54 1291.6 849.54S1352.22 931.88 1407.56 931.88S1466.15 975.27 1523.53 975.27S1586.11 962.9 1639.5 962.9S1699.43 862.35 1755.46 862.35S1815.27 944.07 1871.43 944.07S1934.09 868.08 1987.39 868.08S2050.07 956.09 2103.36 956.09S2166.79 851.65 2219.33 851.65S2277.37 955.78 2335.29 955.78S2395.04 869.73 2451.26 869.73S2514.15 966.56 2567.23 966.56S2629.81 876.59 2683.19 876.59L2660 1199 L-100 1199 Z;M-100 838.34C-37.32 876.18 -38.7 881.47 15.97 881.47S78.66 846.49 131.93 846.49S191.76 937.6 247.9 937.6S310.88 849.97 363.87 849.97S424.79 946.8 479.83 946.8S539.62 954.56 595.8 954.56S658.76 974.36 711.76 974.36S770.23 841.14 827.73 841.14S888.78 953.38 943.7 953.38S1005.84 933.41 1059.66 933.41S1122.71 950.45 1175.63 950.45S1238.08 856.64 1291.6 856.64S1349.78 949.38 1407.56 949.38S1466.69 874.48 1523.53 874.48S1584 844.08 1639.5 844.08S1698.94 868.08 1755.46 868.08S1814.09 842.38 1871.43 842.38S1932.73 869.49 1987.39 869.49S2050.19 949.03 2103.36 949.03S2166.33 866.84 2219.33 866.84S2281.06 983.67 2335.29 983.67S2398.46 847.62 2451.26 847.62S2512.3 836.34 2567.23 836.34S2628.48 840.73 2683.19 840.73L2660 1199 L-100 1199 Z;M-100 840.55C-39.89 857.5 -36.99 849.95 15.97 849.95S77.97 844.83 131.93 844.83S192.33 932.12 247.9 932.12S310.14 861.8 363.87 861.8S423.24 980.11 479.83 980.11S542.25 860.14 595.8 860.14S657.49 969.6 711.76 969.6S774.88 873.02 827.73 873.02S887.06 870.27 943.7 870.27S1005.89 846.13 1059.66 846.13S1118.94 972.05 1175.63 972.05S1237.79 849.54 1291.6 849.54S1352.22 931.88 1407.56 931.88S1466.15 975.27 1523.53 975.27S1586.11 962.9 1639.5 962.9S1699.43 862.35 1755.46 862.35S1815.27 944.07 1871.43 944.07S1934.09 868.08 1987.39 868.08S2050.07 956.09 2103.36 956.09S2166.79 851.65 2219.33 851.65S2277.37 955.78 2335.29 955.78S2395.04 869.73 2451.26 869.73S2514.15 966.56 2567.23 966.56S2629.81 876.59 2683.19 876.59L2660 1199 L-100 1199 Z"></animate>
  <animateTransform attributeName="transform" type="translate" dur="2.5s" begin="-2.25s" repeatCount="indefinite" values="0;10;0" calcMode="spline" keySplines="0.3 0 0.7 1;0.3 0 0.7 1"></animateTransform>
</path></g>
</svg>